<svg xmlns="http://www.w3.org/2000/svg" viewBox="0 0 1200 675" width="1200" height="675">
<defs><linearGradient id="bg" x1="0" y1="0" x2="1" y2="1"><stop offset="0" stop-color="#060a14"/><stop offset="1" stop-color="#101a30"/></linearGradient><linearGradient id="cone" x1="0" x2="1"><stop offset="0" stop-color="#ffe9a8" stop-opacity=".0"/><stop offset=".2" stop-color="#ffe9a8" stop-opacity=".22"/><stop offset="1" stop-color="#ffe9a8" stop-opacity="0"/></linearGradient></defs>
<rect width="1200" height="675" fill="url(#bg)"/><circle cx="747" cy="223" r="1.7" fill="#fff" fill-opacity="0.86"/><circle cx="888" cy="277" r="0.6" fill="#fff" fill-opacity="0.53"/><circle cx="1132" cy="195" r="1.9" fill="#fff" fill-opacity="0.28"/><circle cx="563" cy="74" r="1.4" fill="#fff" fill-opacity="0.60"/><circle cx="16" cy="65" r="1.0" fill="#fff" fill-opacity="0.84"/><circle cx="919" cy="48" r="1.7" fill="#fff" fill-opacity="0.30"/><circle cx="741" cy="38" r="0.6" fill="#fff" fill-opacity="0.81"/><circle cx="251" cy="65" r="2.0" fill="#fff" fill-opacity="0.81"/><circle cx="347" cy="288" r="1.4" fill="#fff" fill-opacity="0.67"/><circle cx="246" cy="282" r="1.6" fill="#fff" fill-opacity="0.88"/><circle cx="1072" cy="90" r="1.1" fill="#fff" fill-opacity="0.32"/><circle cx="175" cy="20" r="1.0" fill="#fff" fill-opacity="0.62"/><circle cx="4" cy="203" r="1.1" fill="#fff" fill-opacity="0.42"/><circle cx="982" cy="144" r="1.0" fill="#fff" fill-opacity="0.54"/><circle cx="846" cy="17" r="2.0" fill="#fff" fill-opacity="0.22"/><circle cx="900" cy="253" r="0.6" fill="#fff" fill-opacity="0.75"/><circle cx="439" cy="174" r="0.6" fill="#fff" fill-opacity="0.23"/><circle cx="217" cy="287" r="0.9" fill="#fff" fill-opacity="0.73"/><circle cx="1116" cy="283" r="1.1" fill="#fff" fill-opacity="0.45"/><circle cx="630" cy="233" r="0.8" fill="#fff" fill-opacity="0.72"/><circle cx="957" cy="258" r="0.7" fill="#fff" fill-opacity="0.86"/><circle cx="109" cy="102" r="1.5" fill="#fff" fill-opacity="0.84"/><circle cx="408" cy="277" r="1.4" fill="#fff" fill-opacity="0.42"/><circle cx="380" cy="53" r="0.7" fill="#fff" fill-opacity="0.30"/><circle cx="827" cy="299" r="0.8" fill="#fff" fill-opacity="0.23"/><circle cx="1184" cy="160" r="1.2" fill="#fff" fill-opacity="0.37"/><circle cx="713" cy="248" r="1.2" fill="#fff" fill-opacity="0.50"/><circle cx="67" cy="275" r="0.6" fill="#fff" fill-opacity="0.55"/><circle cx="1006" cy="39" r="1.6" fill="#fff" fill-opacity="0.86"/><circle cx="756" cy="236" r="0.7" fill="#fff" fill-opacity="0.50"/><circle cx="179" cy="253" r="1.0" fill="#fff" fill-opacity="0.52"/><circle cx="1199" cy="256" r="2.0" fill="#fff" fill-opacity="0.52"/><circle cx="586" cy="219" r="1.3" fill="#fff" fill-opacity="0.40"/><circle cx="485" cy="44" r="1.1" fill="#fff" fill-opacity="0.89"/><circle cx="1152" cy="188" r="1.3" fill="#fff" fill-opacity="0.44"/><circle cx="107" cy="82" r="1.7" fill="#fff" fill-opacity="0.81"/><circle cx="434" cy="236" r="1.7" fill="#fff" fill-opacity="0.69"/><circle cx="797" cy="228" r="1.1" fill="#fff" fill-opacity="0.69"/><circle cx="337" cy="146" r="1.7" fill="#fff" fill-opacity="0.68"/><circle cx="353" cy="284" r="1.5" fill="#fff" fill-opacity="0.61"/><circle cx="14" cy="164" r="1.0" fill="#fff" fill-opacity="0.67"/><circle cx="556" cy="245" r="1.5" fill="#fff" fill-opacity="0.76"/><circle cx="417" cy="193" r="1.6" fill="#fff" fill-opacity="0.78"/><circle cx="420" cy="253" r="1.8" fill="#fff" fill-opacity="0.68"/><circle cx="1171" cy="287" r="1.3" fill="#fff" fill-opacity="0.57"/><circle cx="199" cy="251" r="1.9" fill="#fff" fill-opacity="0.53"/><circle cx="830" cy="216" r="1.6" fill="#fff" fill-opacity="0.32"/><circle cx="936" cy="174" r="1.5" fill="#fff" fill-opacity="0.49"/><circle cx="748" cy="232" r="1.5" fill="#fff" fill-opacity="0.70"/><circle cx="33" cy="48" r="1.2" fill="#fff" fill-opacity="0.66"/><circle cx="263" cy="206" r="1.5" fill="#fff" fill-opacity="0.23"/><circle cx="566" cy="68" r="0.7" fill="#fff" fill-opacity="0.29"/><circle cx="381" cy="54" r="0.9" fill="#fff" fill-opacity="0.22"/><circle cx="558" cy="114" r="1.5" fill="#fff" fill-opacity="0.61"/><circle cx="285" cy="271" r="0.6" fill="#fff" fill-opacity="0.48"/><circle cx="334" cy="123" r="0.8" fill="#fff" fill-opacity="0.78"/><circle cx="449" cy="11" r="1.5" fill="#fff" fill-opacity="0.27"/><circle cx="654" cy="102" r="1.4" fill="#fff" fill-opacity="0.87"/><circle cx="982" cy="126" r="1.7" fill="#fff" fill-opacity="0.65"/><circle cx="443" cy="43" r="1.4" fill="#fff" fill-opacity="0.59"/><circle cx="1149" cy="290" r="1.5" fill="#fff" fill-opacity="0.45"/><circle cx="1072" cy="0" r="0.8" fill="#fff" fill-opacity="0.60"/><circle cx="738" cy="42" r="1.5" fill="#fff" fill-opacity="0.82"/><circle cx="451" cy="130" r="0.9" fill="#fff" fill-opacity="0.40"/><circle cx="1167" cy="114" r="1.9" fill="#fff" fill-opacity="0.84"/><circle cx="715" cy="78" r="2.0" fill="#fff" fill-opacity="0.55"/><circle cx="499" cy="96" r="2.0" fill="#fff" fill-opacity="0.54"/><circle cx="344" cy="143" r="0.8" fill="#fff" fill-opacity="0.64"/><circle cx="532" cy="88" r="1.7" fill="#fff" fill-opacity="0.78"/><circle cx="16" cy="160" r="1.0" fill="#fff" fill-opacity="0.85"/><circle cx="938" cy="74" r="1.0" fill="#fff" fill-opacity="0.31"/><circle cx="1187" cy="88" r="1.5" fill="#fff" fill-opacity="0.53"/><circle cx="774" cy="181" r="1.6" fill="#fff" fill-opacity="0.28"/><circle cx="912" cy="90" r="1.3" fill="#fff" fill-opacity="0.44"/><circle cx="356" cy="159" r="1.3" fill="#fff" fill-opacity="0.45"/><circle cx="894" cy="177" r="0.7" fill="#fff" fill-opacity="0.38"/><circle cx="547" cy="275" r="1.8" fill="#fff" fill-opacity="0.58"/><circle cx="17" cy="234" r="1.2" fill="#fff" fill-opacity="0.60"/><circle cx="850" cy="190" r="1.3" fill="#fff" fill-opacity="0.84"/><circle cx="463" cy="118" r="1.8" fill="#fff" fill-opacity="0.34"/><circle cx="356" cy="249" r="0.7" fill="#fff" fill-opacity="0.79"/><circle cx="834" cy="130" r="1.0" fill="#fff" fill-opacity="0.75"/><circle cx="1093" cy="43" r="1.3" fill="#fff" fill-opacity="0.58"/><circle cx="597" cy="99" r="0.8" fill="#fff" fill-opacity="0.61"/><circle cx="974" cy="21" r="0.9" fill="#fff" fill-opacity="0.77"/><circle cx="950" cy="199" r="0.6" fill="#fff" fill-opacity="0.71"/><circle cx="1174" cy="300" r="1.6" fill="#fff" fill-opacity="0.23"/><circle cx="1010" cy="66" r="1.5" fill="#fff" fill-opacity="0.87"/><circle cx="855" cy="40" r="1.0" fill="#fff" fill-opacity="0.84"/><circle cx="180" cy="183" r="1.2" fill="#fff" fill-opacity="0.31"/><circle cx="747" cy="13" r="0.8" fill="#fff" fill-opacity="0.47"/><circle cx="86" cy="17" r="1.4" fill="#fff" fill-opacity="0.72"/><circle cx="1054" cy="40" r="1.2" fill="#fff" fill-opacity="0.42"/><circle cx="720" cy="147" r="1.9" fill="#fff" fill-opacity="0.46"/><circle cx="67" cy="209" r="0.8" fill="#fff" fill-opacity="0.64"/><circle cx="607" cy="273" r="1.4" fill="#fff" fill-opacity="0.63"/><circle cx="316" cy="166" r="1.0" fill="#fff" fill-opacity="0.73"/><circle cx="620" cy="40" r="0.9" fill="#fff" fill-opacity="0.46"/><circle cx="884" cy="54" r="1.6" fill="#fff" fill-opacity="0.66"/><circle cx="102" cy="200" r="0.7" fill="#fff" fill-opacity="0.29"/><circle cx="713" cy="72" r="1.8" fill="#fff" fill-opacity="0.54"/><circle cx="388" cy="239" r="0.6" fill="#fff" fill-opacity="0.71"/><circle cx="64" cy="45" r="1.9" fill="#fff" fill-opacity="0.68"/><circle cx="268" cy="35" r="2.0" fill="#fff" fill-opacity="0.67"/><circle cx="985" cy="42" r="1.5" fill="#fff" fill-opacity="0.45"/><circle cx="282" cy="100" r="1.5" fill="#fff" fill-opacity="0.44"/><circle cx="463" cy="41" r="1.8" fill="#fff" fill-opacity="0.65"/><circle cx="965" cy="130" r="1.8" fill="#fff" fill-opacity="0.56"/><circle cx="711" cy="172" r="1.6" fill="#fff" fill-opacity="0.48"/><circle cx="116" cy="10" r="0.9" fill="#fff" fill-opacity="0.23"/><circle cx="1010" cy="120" r="54" fill="#e9eefc" fill-opacity=".9"/><circle cx="1030" cy="108" r="54" fill="#0a1020"/><path d="M0 360 Q200 250 420 330 T820 300 T1200 340 V675 H0Z" fill="#0a1220"/><polygon points="0,675 0,430 720,330 720,470" fill="url(#cone)"/><rect x="260" y="296" width="222" height="96" rx="12" fill="#1a2436" stroke="#34445e" stroke-width="3"/><rect x="282" y="318" width="34" height="40" rx="5" fill="#ffd27a" fill-opacity="0.35"/><rect x="332" y="318" width="34" height="40" rx="5" fill="#ffd27a" fill-opacity="0.95"/><rect x="382" y="318" width="34" height="40" rx="5" fill="#ffd27a" fill-opacity="0.95"/><rect x="432" y="318" width="34" height="40" rx="5" fill="#ffd27a" fill-opacity="0.35"/><circle cx="310" cy="398" r="13" fill="#0c111b" stroke="#4a5d7c" stroke-width="3"/><circle cx="432" cy="398" r="13" fill="#0c111b" stroke="#4a5d7c" stroke-width="3"/><rect x="495" y="296" width="222" height="96" rx="12" fill="#1a2436" stroke="#34445e" stroke-width="3"/><rect x="517" y="318" width="34" height="40" rx="5" fill="#ffd27a" fill-opacity="0.95"/><rect x="567" y="318" width="34" height="40" rx="5" fill="#ffd27a" fill-opacity="0.95"/><rect x="617" y="318" width="34" height="40" rx="5" fill="#ffd27a" fill-opacity="0.35"/><rect x="667" y="318" width="34" height="40" rx="5" fill="#ffd27a" fill-opacity="0.95"/><circle cx="545" cy="398" r="13" fill="#0c111b" stroke="#4a5d7c" stroke-width="3"/><circle cx="667" cy="398" r="13" fill="#0c111b" stroke="#4a5d7c" stroke-width="3"/><rect x="730" y="296" width="222" height="96" rx="12" fill="#1a2436" stroke="#34445e" stroke-width="3"/><rect x="752" y="318" width="34" height="40" rx="5" fill="#ffd27a" fill-opacity="0.95"/><rect x="802" y="318" width="34" height="40" rx="5" fill="#ff4b4b" fill-opacity="0.35"/><rect x="852" y="318" width="34" height="40" rx="5" fill="#ffd27a" fill-opacity="0.95"/><rect x="902" y="318" width="34" height="40" rx="5" fill="#ffd27a" fill-opacity="0.95"/><circle cx="780" cy="398" r="13" fill="#0c111b" stroke="#4a5d7c" stroke-width="3"/><circle cx="902" cy="398" r="13" fill="#0c111b" stroke="#4a5d7c" stroke-width="3"/><rect x="965" y="296" width="222" height="96" rx="12" fill="#1a2436" stroke="#34445e" stroke-width="3"/><rect x="987" y="318" width="34" height="40" rx="5" fill="#ffd27a" fill-opacity="0.35"/><rect x="1037" y="318" width="34" height="40" rx="5" fill="#ffd27a" fill-opacity="0.95"/><rect x="1087" y="318" width="34" height="40" rx="5" fill="#ffd27a" fill-opacity="0.95"/><rect x="1137" y="318" width="34" height="40" rx="5" fill="#ffd27a" fill-opacity="0.35"/><circle cx="1015" cy="398" r="13" fill="#0c111b" stroke="#4a5d7c" stroke-width="3"/><circle cx="1137" cy="398" r="13" fill="#0c111b" stroke="#4a5d7c" stroke-width="3"/><rect y="410" width="1200" height="5" fill="#3a4b66"/><g font-family="Arial, sans-serif"><text x="70" y="565" fill="#fff" font-size="76" font-weight="800">القطار الأخير</text><text x="72" y="613" fill="#d7b98a" font-size="28">The Last Train · night-train murder mystery</text></g></svg>