<svg xmlns="http://www.w3.org/2000/svg" viewBox="0 0 1200 675" width="1200" height="675">
<defs><linearGradient id="bg" x1="0" y1="0" x2="1" y2="1"><stop offset="0" stop-color="#062019"/><stop offset="1" stop-color="#0b3a2e"/></linearGradient></defs>
<rect width="1200" height="675" fill="url(#bg)"/><rect x="600" y="60" width="540" height="390" rx="22" fill="#fff" fill-opacity=".05" stroke="#19c39a" stroke-opacity=".4"/><rect x="640" y="280" width="38" height="120" rx="8" fill="#19c39a"/><rect x="702" y="210" width="38" height="190" rx="8" fill="#19c39a"/><rect x="764" y="250" width="38" height="150" rx="8" fill="#19c39a"/><rect x="826" y="160" width="38" height="240" rx="8" fill="#19c39a"/><rect x="888" y="100" width="38" height="300" rx="8" fill="#ffcc4d"/><rect x="950" y="190" width="38" height="210" rx="8" fill="#19c39a"/><rect x="1012" y="230" width="38" height="170" rx="8" fill="#19c39a"/><g transform="translate(1010 170)"><circle r="70" fill="none" stroke="#fff" stroke-opacity=".12" stroke-width="26"/><circle r="70" fill="none" stroke="#19c39a" stroke-width="26" stroke-dasharray="250 440" transform="rotate(-90)"/><circle r="70" fill="none" stroke="#ffcc4d" stroke-width="26" stroke-dasharray="90 440" stroke-dashoffset="-250" transform="rotate(-90)"/></g><text x="640" y="130" font-family="Arial" font-size="24" fill="#9fe8d4">د.ل</text><rect x="640" y="150" width="210" height="16" rx="8" fill="#fff" fill-opacity=".6"/><g font-family="Arial, sans-serif"><text x="70" y="565" fill="#fff" font-size="76" font-weight="800">مصروفي</text><text x="72" y="613" fill="#9fe8d4" font-size="28">Masrofy · Arabic expense tracker</text></g></svg>