<svg xmlns="http://www.w3.org/2000/svg" viewBox="0 0 1200 675" width="1200" height="675">
<defs><radialGradient id="g" cx="75%" cy="20%" r="80%"><stop offset="0" stop-color="#3ee0ff" stop-opacity=".35"/><stop offset="1" stop-color="#04070f" stop-opacity="0"/></radialGradient>
<pattern id="p" width="40" height="40" patternUnits="userSpaceOnUse"><path d="M40 0H0v40" fill="none" stroke="#8b6cff" stroke-opacity=".08"/></pattern></defs>
<rect width="1200" height="675" fill="#06101f"/><rect width="1200" height="675" fill="url(#p)"/><rect width="1200" height="675" fill="url(#g)"/>
<line x1="286" y1="367" x2="444" y2="408" stroke="#8b6cff" stroke-opacity="0.12"/><line x1="286" y1="367" x2="311" y2="158" stroke="#8b6cff" stroke-opacity="0.01"/><line x1="286" y1="367" x2="421" y2="395" stroke="#8b6cff" stroke-opacity="0.18"/><line x1="286" y1="367" x2="353" y2="519" stroke="#8b6cff" stroke-opacity="0.12"/><line x1="286" y1="367" x2="237" y2="275" stroke="#8b6cff" stroke-opacity="0.26"/><line x1="444" y1="408" x2="628" y2="500" stroke="#8b6cff" stroke-opacity="0.02"/><line x1="444" y1="408" x2="474" y2="541" stroke="#8b6cff" stroke-opacity="0.18"/><line x1="444" y1="408" x2="421" y2="395" stroke="#8b6cff" stroke-opacity="0.44"/><line x1="444" y1="408" x2="353" y2="519" stroke="#8b6cff" stroke-opacity="0.17"/><line x1="751" y1="44" x2="767" y2="102" stroke="#8b6cff" stroke-opacity="0.36"/><line x1="751" y1="44" x2="806" y2="43" stroke="#8b6cff" stroke-opacity="0.37"/><line x1="751" y1="44" x2="752" y2="203" stroke="#8b6cff" stroke-opacity="0.13"/><line x1="751" y1="44" x2="806" y2="110" stroke="#8b6cff" stroke-opacity="0.30"/><line x1="751" y1="44" x2="857" y2="143" stroke="#8b6cff" stroke-opacity="0.17"/><line x1="751" y1="44" x2="737" y2="30" stroke="#8b6cff" stroke-opacity="0.46"/><line x1="751" y1="44" x2="862" y2="223" stroke="#8b6cff" stroke-opacity="0.01"/><line x1="751" y1="44" x2="720" y2="21" stroke="#8b6cff" stroke-opacity="0.41"/><line x1="751" y1="44" x2="733" y2="105" stroke="#8b6cff" stroke-opacity="0.35"/><line x1="16" y1="565" x2="106" y2="540" stroke="#8b6cff" stroke-opacity="0.28"/><line x1="311" y1="158" x2="362" y2="21" stroke="#8b6cff" stroke-opacity="0.16"/><line x1="311" y1="158" x2="163" y2="146" stroke="#8b6cff" stroke-opacity="0.16"/><line x1="311" y1="158" x2="342" y2="43" stroke="#8b6cff" stroke-opacity="0.22"/><line x1="311" y1="158" x2="493" y2="102" stroke="#8b6cff" stroke-opacity="0.06"/><line x1="311" y1="158" x2="372" y2="52" stroke="#8b6cff" stroke-opacity="0.22"/><line x1="311" y1="158" x2="237" y2="275" stroke="#8b6cff" stroke-opacity="0.18"/><line x1="1195" y1="317" x2="1004" y2="322" stroke="#8b6cff" stroke-opacity="0.06"/><line x1="1195" y1="317" x2="1039" y2="319" stroke="#8b6cff" stroke-opacity="0.14"/><line x1="1195" y1="317" x2="1159" y2="294" stroke="#8b6cff" stroke-opacity="0.40"/><line x1="1195" y1="317" x2="1086" y2="384" stroke="#8b6cff" stroke-opacity="0.20"/><line x1="1195" y1="317" x2="998" y2="387" stroke="#8b6cff" stroke-opacity="0.02"/><line x1="1004" y1="322" x2="910" y2="399" stroke="#8b6cff" stroke-opacity="0.22"/><line x1="1004" y1="322" x2="1039" y2="319" stroke="#8b6cff" stroke-opacity="0.42"/><line x1="1004" y1="322" x2="1159" y2="294" stroke="#8b6cff" stroke-opacity="0.14"/><line x1="1004" y1="322" x2="1086" y2="384" stroke="#8b6cff" stroke-opacity="0.26"/><line x1="1004" y1="322" x2="998" y2="387" stroke="#8b6cff" stroke-opacity="0.35"/><line x1="1004" y1="322" x2="862" y2="223" stroke="#8b6cff" stroke-opacity="0.10"/><line x1="767" y1="102" x2="806" y2="43" stroke="#8b6cff" stroke-opacity="0.34"/><line x1="767" y1="102" x2="752" y2="203" stroke="#8b6cff" stroke-opacity="0.26"/><line x1="767" y1="102" x2="806" y2="110" stroke="#8b6cff" stroke-opacity="0.41"/><line x1="767" y1="102" x2="857" y2="143" stroke="#8b6cff" stroke-opacity="0.27"/><line x1="767" y1="102" x2="737" y2="30" stroke="#8b6cff" stroke-opacity="0.32"/><line x1="767" y1="102" x2="862" y2="223" stroke="#8b6cff" stroke-opacity="0.14"/><line x1="767" y1="102" x2="720" y2="21" stroke="#8b6cff" stroke-opacity="0.28"/><line x1="767" y1="102" x2="733" y2="105" stroke="#8b6cff" stroke-opacity="0.42"/><line x1="762" y1="586" x2="628" y2="500" stroke="#8b6cff" stroke-opacity="0.13"/><line x1="762" y1="586" x2="863" y2="593" stroke="#8b6cff" stroke-opacity="0.27"/><line x1="762" y1="586" x2="857" y2="622" stroke="#8b6cff" stroke-opacity="0.26"/><line x1="762" y1="586" x2="701" y2="610" stroke="#8b6cff" stroke-opacity="0.35"/><line x1="762" y1="586" x2="818" y2="627" stroke="#8b6cff" stroke-opacity="0.34"/><line x1="762" y1="586" x2="607" y2="674" stroke="#8b6cff" stroke-opacity="0.09"/><line x1="628" y1="500" x2="474" y2="541" stroke="#8b6cff" stroke-opacity="0.13"/><line x1="628" y1="500" x2="534" y2="632" stroke="#8b6cff" stroke-opacity="0.13"/><line x1="628" y1="500" x2="701" y2="610" stroke="#8b6cff" stroke-opacity="0.19"/><line x1="628" y1="500" x2="607" y2="674" stroke="#8b6cff" stroke-opacity="0.10"/><line x1="806" y1="43" x2="752" y2="203" stroke="#8b6cff" stroke-opacity="0.11"/><line x1="806" y1="43" x2="806" y2="110" stroke="#8b6cff" stroke-opacity="0.35"/><line x1="806" y1="43" x2="857" y2="143" stroke="#8b6cff" stroke-opacity="0.24"/><line x1="806" y1="43" x2="737" y2="30" stroke="#8b6cff" stroke-opacity="0.34"/><line x1="806" y1="43" x2="862" y2="223" stroke="#8b6cff" stroke-opacity="0.06"/><line x1="806" y1="43" x2="720" y2="21" stroke="#8b6cff" stroke-opacity="0.29"/><line x1="806" y1="43" x2="733" y2="105" stroke="#8b6cff" stroke-opacity="0.28"/><line x1="910" y1="399" x2="1039" y2="319" stroke="#8b6cff" stroke-opacity="0.15"/><line x1="910" y1="399" x2="863" y2="593" stroke="#8b6cff" stroke-opacity="0.04"/><line x1="910" y1="399" x2="1086" y2="384" stroke="#8b6cff" stroke-opacity="0.09"/><line x1="910" y1="399" x2="998" y2="387" stroke="#8b6cff" stroke-opacity="0.29"/><line x1="910" y1="399" x2="862" y2="223" stroke="#8b6cff" stroke-opacity="0.08"/><line x1="362" y1="21" x2="342" y2="43" stroke="#8b6cff" stroke-opacity="0.43"/><line x1="362" y1="21" x2="493" y2="102" stroke="#8b6cff" stroke-opacity="0.14"/><line x1="362" y1="21" x2="372" y2="52" stroke="#8b6cff" stroke-opacity="0.42"/><line x1="1039" y1="319" x2="1159" y2="294" stroke="#8b6cff" stroke-opacity="0.22"/><line x1="1039" y1="319" x2="1086" y2="384" stroke="#8b6cff" stroke-opacity="0.31"/><line x1="1039" y1="319" x2="998" y2="387" stroke="#8b6cff" stroke-opacity="0.32"/><line x1="1039" y1="319" x2="862" y2="223" stroke="#8b6cff" stroke-opacity="0.04"/><line x1="863" y1="593" x2="857" y2="622" stroke="#8b6cff" stroke-opacity="0.43"/><line x1="863" y1="593" x2="701" y2="610" stroke="#8b6cff" stroke-opacity="0.12"/><line x1="863" y1="593" x2="818" y2="627" stroke="#8b6cff" stroke-opacity="0.37"/><line x1="863" y1="593" x2="1028" y2="669" stroke="#8b6cff" stroke-opacity="0.08"/><line x1="863" y1="593" x2="1033" y2="651" stroke="#8b6cff" stroke-opacity="0.08"/><line x1="863" y1="593" x2="1025" y2="668" stroke="#8b6cff" stroke-opacity="0.09"/><line x1="863" y1="593" x2="1057" y2="662" stroke="#8b6cff" stroke-opacity="0.02"/><line x1="857" y1="622" x2="701" y2="610" stroke="#8b6cff" stroke-opacity="0.14"/><line x1="857" y1="622" x2="818" y2="627" stroke="#8b6cff" stroke-opacity="0.41"/><line x1="857" y1="622" x2="1028" y2="669" stroke="#8b6cff" stroke-opacity="0.09"/><line x1="857" y1="622" x2="1033" y2="651" stroke="#8b6cff" stroke-opacity="0.09"/><line x1="857" y1="622" x2="1025" y2="668" stroke="#8b6cff" stroke-opacity="0.10"/><line x1="857" y1="622" x2="1057" y2="662" stroke="#8b6cff" stroke-opacity="0.03"/><line x1="474" y1="541" x2="534" y2="632" stroke="#8b6cff" stroke-opacity="0.25"/><line x1="474" y1="541" x2="421" y2="395" stroke="#8b6cff" stroke-opacity="0.14"/><line x1="474" y1="541" x2="353" y2="519" stroke="#8b6cff" stroke-opacity="0.21"/><line x1="474" y1="541" x2="607" y2="674" stroke="#8b6cff" stroke-opacity="0.06"/><line x1="534" y1="632" x2="701" y2="610" stroke="#8b6cff" stroke-opacity="0.11"/><line x1="534" y1="632" x2="353" y2="519" stroke="#8b6cff" stroke-opacity="0.01"/><line x1="534" y1="632" x2="607" y2="674" stroke="#8b6cff" stroke-opacity="0.30"/><line x1="1055" y1="66" x2="857" y2="143" stroke="#8b6cff" stroke-opacity="0.01"/><line x1="1055" y1="66" x2="1047" y2="30" stroke="#8b6cff" stroke-opacity="0.42"/><line x1="163" y1="146" x2="342" y2="43" stroke="#8b6cff" stroke-opacity="0.02"/><line x1="163" y1="146" x2="237" y2="275" stroke="#8b6cff" stroke-opacity="0.16"/><line x1="1159" y1="294" x2="1086" y2="384" stroke="#8b6cff" stroke-opacity="0.23"/><line x1="1159" y1="294" x2="998" y2="387" stroke="#8b6cff" stroke-opacity="0.07"/><line x1="752" y1="203" x2="609" y2="260" stroke="#8b6cff" stroke-opacity="0.14"/><line x1="752" y1="203" x2="806" y2="110" stroke="#8b6cff" stroke-opacity="0.25"/><line x1="752" y1="203" x2="857" y2="143" stroke="#8b6cff" stroke-opacity="0.22"/><line x1="752" y1="203" x2="737" y2="30" stroke="#8b6cff" stroke-opacity="0.10"/><line x1="752" y1="203" x2="862" y2="223" stroke="#8b6cff" stroke-opacity="0.24"/><line x1="752" y1="203" x2="720" y2="21" stroke="#8b6cff" stroke-opacity="0.07"/><line x1="752" y1="203" x2="733" y2="105" stroke="#8b6cff" stroke-opacity="0.27"/><line x1="609" y1="260" x2="493" y2="102" stroke="#8b6cff" stroke-opacity="0.04"/><line x1="609" y1="260" x2="733" y2="105" stroke="#8b6cff" stroke-opacity="0.04"/><line x1="421" y1="395" x2="353" y2="519" stroke="#8b6cff" stroke-opacity="0.17"/><line x1="701" y1="610" x2="818" y2="627" stroke="#8b6cff" stroke-opacity="0.23"/><line x1="701" y1="610" x2="607" y2="674" stroke="#8b6cff" stroke-opacity="0.24"/><line x1="818" y1="627" x2="1028" y2="669" stroke="#8b6cff" stroke-opacity="0.01"/><line x1="818" y1="627" x2="1033" y2="651" stroke="#8b6cff" stroke-opacity="0.00"/><line x1="818" y1="627" x2="1025" y2="668" stroke="#8b6cff" stroke-opacity="0.01"/><line x1="1028" y1="669" x2="1033" y2="651" stroke="#8b6cff" stroke-opacity="0.46"/><line x1="1028" y1="669" x2="1025" y2="668" stroke="#8b6cff" stroke-opacity="0.49"/><line x1="1028" y1="669" x2="1057" y2="662" stroke="#8b6cff" stroke-opacity="0.43"/><line x1="806" y1="110" x2="857" y2="143" stroke="#8b6cff" stroke-opacity="0.36"/><line x1="806" y1="110" x2="737" y2="30" stroke="#8b6cff" stroke-opacity="0.26"/><line x1="806" y1="110" x2="862" y2="223" stroke="#8b6cff" stroke-opacity="0.21"/><line x1="806" y1="110" x2="720" y2="21" stroke="#8b6cff" stroke-opacity="0.21"/><line x1="806" y1="110" x2="733" y2="105" stroke="#8b6cff" stroke-opacity="0.33"/><line x1="1033" y1="651" x2="1025" y2="668" stroke="#8b6cff" stroke-opacity="0.46"/><line x1="1033" y1="651" x2="1057" y2="662" stroke="#8b6cff" stroke-opacity="0.44"/><line x1="1086" y1="384" x2="998" y2="387" stroke="#8b6cff" stroke-opacity="0.30"/><line x1="857" y1="143" x2="737" y2="30" stroke="#8b6cff" stroke-opacity="0.12"/><line x1="857" y1="143" x2="862" y2="223" stroke="#8b6cff" stroke-opacity="0.31"/><line x1="857" y1="143" x2="720" y2="21" stroke="#8b6cff" stroke-opacity="0.08"/><line x1="857" y1="143" x2="733" y2="105" stroke="#8b6cff" stroke-opacity="0.20"/><line x1="998" y1="387" x2="862" y2="223" stroke="#8b6cff" stroke-opacity="0.01"/><line x1="342" y1="43" x2="493" y2="102" stroke="#8b6cff" stroke-opacity="0.13"/><line x1="342" y1="43" x2="372" y2="52" stroke="#8b6cff" stroke-opacity="0.43"/><line x1="1025" y1="668" x2="1057" y2="662" stroke="#8b6cff" stroke-opacity="0.42"/><line x1="493" y1="102" x2="372" y2="52" stroke="#8b6cff" stroke-opacity="0.20"/><line x1="737" y1="30" x2="720" y2="21" stroke="#8b6cff" stroke-opacity="0.45"/><line x1="737" y1="30" x2="733" y2="105" stroke="#8b6cff" stroke-opacity="0.33"/><line x1="862" y1="223" x2="733" y2="105" stroke="#8b6cff" stroke-opacity="0.09"/><line x1="720" y1="21" x2="733" y2="105" stroke="#8b6cff" stroke-opacity="0.30"/><circle cx="286" cy="367" r="1.6" fill="#3ee0ff"/><circle cx="444" cy="408" r="2.1" fill="#8b6cff"/><circle cx="751" cy="44" r="3.3" fill="#3ee0ff"/><circle cx="16" cy="565" r="2.3" fill="#3ee0ff"/><circle cx="311" cy="158" r="2.8" fill="#8b6cff"/><circle cx="1195" cy="317" r="2.7" fill="#3ee0ff"/><circle cx="1004" cy="322" r="2.4" fill="#8b6cff"/><circle cx="767" cy="102" r="3.4" fill="#3ee0ff"/><circle cx="762" cy="586" r="3.5" fill="#3ee0ff"/><circle cx="628" cy="500" r="2.6" fill="#8b6cff"/><circle cx="806" cy="43" r="3.1" fill="#3ee0ff"/><circle cx="910" cy="399" r="1.5" fill="#8b6cff"/><circle cx="362" cy="21" r="1.6" fill="#3ee0ff"/><circle cx="1039" cy="319" r="2.4" fill="#3ee0ff"/><circle cx="863" cy="593" r="2.7" fill="#3ee0ff"/><circle cx="857" cy="622" r="3.0" fill="#8b6cff"/><circle cx="474" cy="541" r="2.7" fill="#8b6cff"/><circle cx="534" cy="632" r="3.4" fill="#3ee0ff"/><circle cx="1055" cy="66" r="2.8" fill="#3ee0ff"/><circle cx="163" cy="146" r="2.7" fill="#3ee0ff"/><circle cx="1159" cy="294" r="1.9" fill="#8b6cff"/><circle cx="752" cy="203" r="2.1" fill="#3ee0ff"/><circle cx="609" cy="260" r="3.2" fill="#3ee0ff"/><circle cx="421" cy="395" r="2.1" fill="#3ee0ff"/><circle cx="701" cy="610" r="1.7" fill="#8b6cff"/><circle cx="818" cy="627" r="3.4" fill="#8b6cff"/><circle cx="1028" cy="669" r="2.1" fill="#8b6cff"/><circle cx="806" cy="110" r="2.8" fill="#3ee0ff"/><circle cx="1033" cy="651" r="2.0" fill="#8b6cff"/><circle cx="1086" cy="384" r="2.9" fill="#8b6cff"/><circle cx="857" cy="143" r="1.7" fill="#3ee0ff"/><circle cx="998" cy="387" r="3.4" fill="#8b6cff"/><circle cx="342" cy="43" r="2.4" fill="#8b6cff"/><circle cx="1025" cy="668" r="1.7" fill="#8b6cff"/><circle cx="106" cy="540" r="3.3" fill="#3ee0ff"/><circle cx="493" cy="102" r="2.0" fill="#8b6cff"/><circle cx="353" cy="519" r="1.6" fill="#8b6cff"/><circle cx="1047" cy="30" r="2.1" fill="#8b6cff"/><circle cx="737" cy="30" r="3.2" fill="#3ee0ff"/><circle cx="862" cy="223" r="3.1" fill="#8b6cff"/><circle cx="1057" cy="662" r="3.1" fill="#3ee0ff"/><circle cx="607" cy="674" r="2.7" fill="#3ee0ff"/><circle cx="372" cy="52" r="2.1" fill="#3ee0ff"/><circle cx="720" cy="21" r="2.4" fill="#3ee0ff"/><circle cx="237" cy="275" r="2.1" fill="#3ee0ff"/><circle cx="733" cy="105" r="1.6" fill="#3ee0ff"/>
<g font-family="monospace"><text x="70" y="525" fill="#8b6cff" font-size="30">$ show vlan brief</text>
<text x="70" y="595" fill="#e6eefb" font-size="64" font-weight="700">3-floor network</text></g>
</svg>