<svg xmlns="http://www.w3.org/2000/svg" viewBox="0 0 1200 675" width="1200" height="675">
<defs><radialGradient id="g" cx="75%" cy="20%" r="80%"><stop offset="0" stop-color="#8b6cff" stop-opacity=".35"/><stop offset="1" stop-color="#04070f" stop-opacity="0"/></radialGradient>
<pattern id="p" width="40" height="40" patternUnits="userSpaceOnUse"><path d="M40 0H0v40" fill="none" stroke="#45f5a8" stroke-opacity=".08"/></pattern></defs>
<rect width="1200" height="675" fill="#06101f"/><rect width="1200" height="675" fill="url(#p)"/><rect width="1200" height="675" fill="url(#g)"/>
<line x1="389" y1="102" x2="544" y2="202" stroke="#45f5a8" stroke-opacity="0.07"/><line x1="389" y1="102" x2="202" y2="79" stroke="#45f5a8" stroke-opacity="0.06"/><line x1="781" y1="49" x2="767" y2="251" stroke="#45f5a8" stroke-opacity="0.03"/><line x1="781" y1="49" x2="657" y2="42" stroke="#45f5a8" stroke-opacity="0.21"/><line x1="781" y1="49" x2="875" y2="194" stroke="#45f5a8" stroke-opacity="0.10"/><line x1="643" y1="247" x2="693" y2="268" stroke="#45f5a8" stroke-opacity="0.38"/><line x1="643" y1="247" x2="767" y2="251" stroke="#45f5a8" stroke-opacity="0.21"/><line x1="643" y1="247" x2="657" y2="42" stroke="#45f5a8" stroke-opacity="0.03"/><line x1="643" y1="247" x2="816" y2="289" stroke="#45f5a8" stroke-opacity="0.09"/><line x1="643" y1="247" x2="544" y2="202" stroke="#45f5a8" stroke-opacity="0.25"/><line x1="643" y1="247" x2="696" y2="308" stroke="#45f5a8" stroke-opacity="0.31"/><line x1="643" y1="247" x2="569" y2="448" stroke="#45f5a8" stroke-opacity="0.00"/><line x1="70" y1="343" x2="45" y2="293" stroke="#45f5a8" stroke-opacity="0.37"/><line x1="70" y1="343" x2="149" y2="151" stroke="#45f5a8" stroke-opacity="0.02"/><line x1="70" y1="343" x2="217" y2="393" stroke="#45f5a8" stroke-opacity="0.14"/><line x1="70" y1="343" x2="72" y2="139" stroke="#45f5a8" stroke-opacity="0.03"/><line x1="70" y1="343" x2="182" y2="330" stroke="#45f5a8" stroke-opacity="0.24"/><line x1="70" y1="343" x2="47" y2="451" stroke="#45f5a8" stroke-opacity="0.24"/><line x1="70" y1="343" x2="73" y2="474" stroke="#45f5a8" stroke-opacity="0.20"/><line x1="70" y1="343" x2="27" y2="312" stroke="#45f5a8" stroke-opacity="0.38"/><line x1="70" y1="343" x2="71" y2="519" stroke="#45f5a8" stroke-opacity="0.09"/><line x1="70" y1="343" x2="155" y2="167" stroke="#45f5a8" stroke-opacity="0.05"/><line x1="70" y1="343" x2="97" y2="303" stroke="#45f5a8" stroke-opacity="0.39"/><line x1="45" y1="293" x2="149" y2="151" stroke="#45f5a8" stroke-opacity="0.09"/><line x1="45" y1="293" x2="217" y2="393" stroke="#45f5a8" stroke-opacity="0.04"/><line x1="45" y1="293" x2="72" y2="139" stroke="#45f5a8" stroke-opacity="0.14"/><line x1="45" y1="293" x2="182" y2="330" stroke="#45f5a8" stroke-opacity="0.17"/><line x1="45" y1="293" x2="47" y2="451" stroke="#45f5a8" stroke-opacity="0.13"/><line x1="45" y1="293" x2="73" y2="474" stroke="#45f5a8" stroke-opacity="0.08"/><line x1="45" y1="293" x2="27" y2="312" stroke="#45f5a8" stroke-opacity="0.44"/><line x1="45" y1="293" x2="155" y2="167" stroke="#45f5a8" stroke-opacity="0.11"/><line x1="45" y1="293" x2="97" y2="303" stroke="#45f5a8" stroke-opacity="0.38"/><line x1="84" y1="61" x2="149" y2="151" stroke="#45f5a8" stroke-opacity="0.24"/><line x1="84" y1="61" x2="173" y2="80" stroke="#45f5a8" stroke-opacity="0.29"/><line x1="84" y1="61" x2="72" y2="139" stroke="#45f5a8" stroke-opacity="0.32"/><line x1="84" y1="61" x2="202" y2="79" stroke="#45f5a8" stroke-opacity="0.22"/><line x1="84" y1="61" x2="155" y2="167" stroke="#45f5a8" stroke-opacity="0.20"/><line x1="509" y1="558" x2="370" y2="551" stroke="#45f5a8" stroke-opacity="0.18"/><line x1="509" y1="558" x2="377" y2="395" stroke="#45f5a8" stroke-opacity="0.01"/><line x1="509" y1="558" x2="630" y2="591" stroke="#45f5a8" stroke-opacity="0.21"/><line x1="509" y1="558" x2="502" y2="511" stroke="#45f5a8" stroke-opacity="0.39"/><line x1="509" y1="558" x2="569" y2="448" stroke="#45f5a8" stroke-opacity="0.21"/><line x1="509" y1="558" x2="463" y2="451" stroke="#45f5a8" stroke-opacity="0.23"/><line x1="509" y1="558" x2="469" y2="588" stroke="#45f5a8" stroke-opacity="0.38"/><line x1="509" y1="558" x2="659" y2="596" stroke="#45f5a8" stroke-opacity="0.14"/><line x1="149" y1="151" x2="173" y2="80" stroke="#45f5a8" stroke-opacity="0.33"/><line x1="149" y1="151" x2="72" y2="139" stroke="#45f5a8" stroke-opacity="0.32"/><line x1="149" y1="151" x2="182" y2="330" stroke="#45f5a8" stroke-opacity="0.08"/><line x1="149" y1="151" x2="27" y2="312" stroke="#45f5a8" stroke-opacity="0.03"/><line x1="149" y1="151" x2="202" y2="79" stroke="#45f5a8" stroke-opacity="0.29"/><line x1="149" y1="151" x2="155" y2="167" stroke="#45f5a8" stroke-opacity="0.46"/><line x1="149" y1="151" x2="97" y2="303" stroke="#45f5a8" stroke-opacity="0.13"/><line x1="753" y1="640" x2="630" y2="591" stroke="#45f5a8" stroke-opacity="0.19"/><line x1="753" y1="640" x2="777" y2="670" stroke="#45f5a8" stroke-opacity="0.41"/><line x1="753" y1="640" x2="659" y2="596" stroke="#45f5a8" stroke-opacity="0.26"/><line x1="693" y1="268" x2="767" y2="251" stroke="#45f5a8" stroke-opacity="0.32"/><line x1="693" y1="268" x2="816" y2="289" stroke="#45f5a8" stroke-opacity="0.21"/><line x1="693" y1="268" x2="544" y2="202" stroke="#45f5a8" stroke-opacity="0.12"/><line x1="693" y1="268" x2="875" y2="194" stroke="#45f5a8" stroke-opacity="0.04"/><line x1="693" y1="268" x2="834" y2="401" stroke="#45f5a8" stroke-opacity="0.05"/><line x1="693" y1="268" x2="696" y2="308" stroke="#45f5a8" stroke-opacity="0.41"/><line x1="1172" y1="31" x2="1176" y2="80" stroke="#45f5a8" stroke-opacity="0.39"/><line x1="1030" y1="195" x2="875" y2="194" stroke="#45f5a8" stroke-opacity="0.14"/><line x1="1030" y1="195" x2="1176" y2="80" stroke="#45f5a8" stroke-opacity="0.07"/><line x1="1030" y1="195" x2="1051" y2="212" stroke="#45f5a8" stroke-opacity="0.44"/><line x1="1030" y1="195" x2="986" y2="192" stroke="#45f5a8" stroke-opacity="0.40"/><line x1="173" y1="80" x2="72" y2="139" stroke="#45f5a8" stroke-opacity="0.23"/><line x1="173" y1="80" x2="202" y2="79" stroke="#45f5a8" stroke-opacity="0.43"/><line x1="173" y1="80" x2="155" y2="167" stroke="#45f5a8" stroke-opacity="0.29"/><line x1="370" y1="551" x2="377" y2="395" stroke="#45f5a8" stroke-opacity="0.14"/><line x1="370" y1="551" x2="293" y2="388" stroke="#45f5a8" stroke-opacity="0.08"/><line x1="370" y1="551" x2="502" y2="511" stroke="#45f5a8" stroke-opacity="0.18"/><line x1="370" y1="551" x2="463" y2="451" stroke="#45f5a8" stroke-opacity="0.19"/><line x1="370" y1="551" x2="469" y2="588" stroke="#45f5a8" stroke-opacity="0.26"/><line x1="217" y1="393" x2="377" y2="395" stroke="#45f5a8" stroke-opacity="0.13"/><line x1="217" y1="393" x2="293" y2="388" stroke="#45f5a8" stroke-opacity="0.32"/><line x1="217" y1="393" x2="182" y2="330" stroke="#45f5a8" stroke-opacity="0.33"/><line x1="217" y1="393" x2="47" y2="451" stroke="#45f5a8" stroke-opacity="0.08"/><line x1="217" y1="393" x2="73" y2="474" stroke="#45f5a8" stroke-opacity="0.12"/><line x1="217" y1="393" x2="27" y2="312" stroke="#45f5a8" stroke-opacity="0.02"/><line x1="217" y1="393" x2="71" y2="519" stroke="#45f5a8" stroke-opacity="0.05"/><line x1="217" y1="393" x2="97" y2="303" stroke="#45f5a8" stroke-opacity="0.15"/><line x1="767" y1="251" x2="816" y2="289" stroke="#45f5a8" stroke-opacity="0.36"/><line x1="767" y1="251" x2="875" y2="194" stroke="#45f5a8" stroke-opacity="0.22"/><line x1="767" y1="251" x2="917" y2="387" stroke="#45f5a8" stroke-opacity="0.03"/><line x1="767" y1="251" x2="834" y2="401" stroke="#45f5a8" stroke-opacity="0.12"/><line x1="767" y1="251" x2="696" y2="308" stroke="#45f5a8" stroke-opacity="0.29"/><line x1="657" y1="42" x2="544" y2="202" stroke="#45f5a8" stroke-opacity="0.05"/><line x1="72" y1="139" x2="27" y2="312" stroke="#45f5a8" stroke-opacity="0.09"/><line x1="72" y1="139" x2="202" y2="79" stroke="#45f5a8" stroke-opacity="0.17"/><line x1="72" y1="139" x2="155" y2="167" stroke="#45f5a8" stroke-opacity="0.30"/><line x1="72" y1="139" x2="97" y2="303" stroke="#45f5a8" stroke-opacity="0.12"/><line x1="816" y1="289" x2="875" y2="194" stroke="#45f5a8" stroke-opacity="0.24"/><line x1="816" y1="289" x2="917" y2="387" stroke="#45f5a8" stroke-opacity="0.17"/><line x1="816" y1="289" x2="834" y2="401" stroke="#45f5a8" stroke-opacity="0.24"/><line x1="816" y1="289" x2="696" y2="308" stroke="#45f5a8" stroke-opacity="0.22"/><line x1="816" y1="289" x2="986" y2="192" stroke="#45f5a8" stroke-opacity="0.05"/><line x1="377" y1="395" x2="293" y2="388" stroke="#45f5a8" stroke-opacity="0.30"/><line x1="377" y1="395" x2="502" y2="511" stroke="#45f5a8" stroke-opacity="0.11"/><line x1="377" y1="395" x2="182" y2="330" stroke="#45f5a8" stroke-opacity="0.02"/><line x1="377" y1="395" x2="569" y2="448" stroke="#45f5a8" stroke-opacity="0.04"/><line x1="377" y1="395" x2="463" y2="451" stroke="#45f5a8" stroke-opacity="0.26"/><line x1="377" y1="395" x2="469" y2="588" stroke="#45f5a8" stroke-opacity="0.01"/><line x1="544" y1="202" x2="696" y2="308" stroke="#45f5a8" stroke-opacity="0.07"/><line x1="953" y1="472" x2="917" y2="387" stroke="#45f5a8" stroke-opacity="0.29"/><line x1="953" y1="472" x2="834" y2="401" stroke="#45f5a8" stroke-opacity="0.18"/><line x1="953" y1="472" x2="1008" y2="638" stroke="#45f5a8" stroke-opacity="0.10"/><line x1="293" y1="388" x2="182" y2="330" stroke="#45f5a8" stroke-opacity="0.21"/><line x1="293" y1="388" x2="463" y2="451" stroke="#45f5a8" stroke-opacity="0.08"/><line x1="293" y1="388" x2="97" y2="303" stroke="#45f5a8" stroke-opacity="0.01"/><line x1="630" y1="591" x2="502" y2="511" stroke="#45f5a8" stroke-opacity="0.15"/><line x1="630" y1="591" x2="569" y2="448" stroke="#45f5a8" stroke-opacity="0.14"/><line x1="630" y1="591" x2="777" y2="670" stroke="#45f5a8" stroke-opacity="0.11"/><line x1="630" y1="591" x2="469" y2="588" stroke="#45f5a8" stroke-opacity="0.13"/><line x1="630" y1="591" x2="659" y2="596" stroke="#45f5a8" stroke-opacity="0.43"/><line x1="875" y1="194" x2="917" y2="387" stroke="#45f5a8" stroke-opacity="0.04"/><line x1="875" y1="194" x2="1051" y2="212" stroke="#45f5a8" stroke-opacity="0.09"/><line x1="875" y1="194" x2="834" y2="401" stroke="#45f5a8" stroke-opacity="0.01"/><line x1="875" y1="194" x2="696" y2="308" stroke="#45f5a8" stroke-opacity="0.01"/><line x1="875" y1="194" x2="986" y2="192" stroke="#45f5a8" stroke-opacity="0.24"/><line x1="1176" y1="80" x2="1051" y2="212" stroke="#45f5a8" stroke-opacity="0.08"/><line x1="502" y1="511" x2="569" y2="448" stroke="#45f5a8" stroke-opacity="0.29"/><line x1="502" y1="511" x2="463" y2="451" stroke="#45f5a8" stroke-opacity="0.34"/><line x1="502" y1="511" x2="469" y2="588" stroke="#45f5a8" stroke-opacity="0.31"/><line x1="502" y1="511" x2="659" y2="596" stroke="#45f5a8" stroke-opacity="0.09"/><line x1="182" y1="330" x2="47" y2="451" stroke="#45f5a8" stroke-opacity="0.08"/><line x1="182" y1="330" x2="73" y2="474" stroke="#45f5a8" stroke-opacity="0.08"/><line x1="182" y1="330" x2="27" y2="312" stroke="#45f5a8" stroke-opacity="0.14"/><line x1="182" y1="330" x2="155" y2="167" stroke="#45f5a8" stroke-opacity="0.12"/><line x1="182" y1="330" x2="97" y2="303" stroke="#45f5a8" stroke-opacity="0.29"/><line x1="47" y1="451" x2="73" y2="474" stroke="#45f5a8" stroke-opacity="0.42"/><line x1="47" y1="451" x2="27" y2="312" stroke="#45f5a8" stroke-opacity="0.17"/><line x1="47" y1="451" x2="71" y2="519" stroke="#45f5a8" stroke-opacity="0.33"/><line x1="47" y1="451" x2="97" y2="303" stroke="#45f5a8" stroke-opacity="0.14"/><line x1="917" y1="387" x2="834" y2="401" stroke="#45f5a8" stroke-opacity="0.30"/><line x1="917" y1="387" x2="986" y2="192" stroke="#45f5a8" stroke-opacity="0.02"/><line x1="1051" y1="212" x2="986" y2="192" stroke="#45f5a8" stroke-opacity="0.34"/><line x1="834" y1="401" x2="696" y2="308" stroke="#45f5a8" stroke-opacity="0.11"/><line x1="696" y1="308" x2="569" y2="448" stroke="#45f5a8" stroke-opacity="0.06"/><line x1="569" y1="448" x2="463" y2="451" stroke="#45f5a8" stroke-opacity="0.25"/><line x1="569" y1="448" x2="469" y2="588" stroke="#45f5a8" stroke-opacity="0.10"/><line x1="569" y1="448" x2="659" y2="596" stroke="#45f5a8" stroke-opacity="0.10"/><line x1="73" y1="474" x2="27" y2="312" stroke="#45f5a8" stroke-opacity="0.11"/><line x1="73" y1="474" x2="71" y2="519" stroke="#45f5a8" stroke-opacity="0.40"/><line x1="73" y1="474" x2="97" y2="303" stroke="#45f5a8" stroke-opacity="0.10"/><line x1="777" y1="670" x2="659" y2="596" stroke="#45f5a8" stroke-opacity="0.18"/><line x1="463" y1="451" x2="469" y2="588" stroke="#45f5a8" stroke-opacity="0.18"/><line x1="27" y1="312" x2="71" y2="519" stroke="#45f5a8" stroke-opacity="0.01"/><line x1="27" y1="312" x2="155" y2="167" stroke="#45f5a8" stroke-opacity="0.05"/><line x1="27" y1="312" x2="97" y2="303" stroke="#45f5a8" stroke-opacity="0.34"/><line x1="202" y1="79" x2="155" y2="167" stroke="#45f5a8" stroke-opacity="0.27"/><line x1="155" y1="167" x2="97" y2="303" stroke="#45f5a8" stroke-opacity="0.16"/><line x1="469" y1="588" x2="659" y2="596" stroke="#45f5a8" stroke-opacity="0.06"/><circle cx="389" cy="102" r="3.1" fill="#8b6cff"/><circle cx="781" cy="49" r="2.9" fill="#8b6cff"/><circle cx="643" cy="247" r="2.9" fill="#8b6cff"/><circle cx="70" cy="343" r="3.4" fill="#45f5a8"/><circle cx="45" cy="293" r="1.7" fill="#45f5a8"/><circle cx="84" cy="61" r="2.0" fill="#45f5a8"/><circle cx="509" cy="558" r="1.5" fill="#45f5a8"/><circle cx="149" cy="151" r="2.0" fill="#45f5a8"/><circle cx="753" cy="640" r="1.8" fill="#8b6cff"/><circle cx="693" cy="268" r="2.7" fill="#8b6cff"/><circle cx="1172" cy="31" r="3.4" fill="#45f5a8"/><circle cx="1030" cy="195" r="2.4" fill="#8b6cff"/><circle cx="173" cy="80" r="2.3" fill="#8b6cff"/><circle cx="370" cy="551" r="1.7" fill="#8b6cff"/><circle cx="217" cy="393" r="1.6" fill="#45f5a8"/><circle cx="767" cy="251" r="3.5" fill="#8b6cff"/><circle cx="657" cy="42" r="1.8" fill="#8b6cff"/><circle cx="72" cy="139" r="2.7" fill="#45f5a8"/><circle cx="816" cy="289" r="1.5" fill="#45f5a8"/><circle cx="377" cy="395" r="2.6" fill="#8b6cff"/><circle cx="544" cy="202" r="2.7" fill="#45f5a8"/><circle cx="953" cy="472" r="3.2" fill="#8b6cff"/><circle cx="293" cy="388" r="1.8" fill="#8b6cff"/><circle cx="630" cy="591" r="3.4" fill="#8b6cff"/><circle cx="875" cy="194" r="2.4" fill="#45f5a8"/><circle cx="1176" cy="80" r="3.2" fill="#8b6cff"/><circle cx="502" cy="511" r="2.5" fill="#8b6cff"/><circle cx="182" cy="330" r="1.7" fill="#45f5a8"/><circle cx="47" cy="451" r="3.0" fill="#8b6cff"/><circle cx="917" cy="387" r="2.5" fill="#45f5a8"/><circle cx="1051" cy="212" r="2.5" fill="#45f5a8"/><circle cx="834" cy="401" r="3.4" fill="#8b6cff"/><circle cx="696" cy="308" r="1.8" fill="#45f5a8"/><circle cx="1008" cy="638" r="3.0" fill="#8b6cff"/><circle cx="569" cy="448" r="3.5" fill="#45f5a8"/><circle cx="73" cy="474" r="2.9" fill="#8b6cff"/><circle cx="777" cy="670" r="2.5" fill="#45f5a8"/><circle cx="986" cy="192" r="2.2" fill="#45f5a8"/><circle cx="463" cy="451" r="2.6" fill="#8b6cff"/><circle cx="27" cy="312" r="2.8" fill="#45f5a8"/><circle cx="202" cy="79" r="3.1" fill="#8b6cff"/><circle cx="71" cy="519" r="3.0" fill="#45f5a8"/><circle cx="155" cy="167" r="1.9" fill="#8b6cff"/><circle cx="469" cy="588" r="2.2" fill="#45f5a8"/><circle cx="97" cy="303" r="3.5" fill="#8b6cff"/><circle cx="659" cy="596" r="2.4" fill="#45f5a8"/>
<g font-family="monospace"><text x="70" y="525" fill="#45f5a8" font-size="30">$ nmap -sC -sV target</text>
<text x="70" y="595" fill="#e6eefb" font-size="64" font-weight="700">Nmap notes</text></g>
</svg>